<svg width="128" height="95" viewBox="0 0 128 95" fill="none" xmlns="http://www.w3.org/2000/svg">
<g clip-path="url(#clip0_101_69)">
<g clip-path="url(#clip1_101_69)">
<path d="M84.9677 68.9656L86.5177 76.5745L124.603 69.9702L124.6 69.9571C124.666 69.9518 124.731 69.945 124.796 69.9367C125.871 69.7503 126.82 69.1707 127.435 68.3255C128.049 67.4802 128.279 66.4386 128.074 65.4296C127.972 64.93 127.766 64.4534 127.469 64.0271C127.171 63.6009 126.787 63.2332 126.339 62.9452C125.89 62.6572 125.386 62.4544 124.856 62.3485C124.325 62.2425 123.778 62.2355 123.246 62.3278C123.182 62.3419 123.119 62.3574 123.056 62.3743L123.053 62.3612L84.9677 68.9656Z" fill="#434343"/>
<path d="M10.7253 78.4796L2.43903 78.4897L10.4551 86.0437L10.4559 86.0223L10.4595 86.0227C12.9153 88.6013 17.6592 90.8521 24.0279 92.4603C30.3966 94.0685 38.0714 94.9536 45.9789 94.9919V95C46.0562 94.9987 46.1334 94.9974 46.2107 94.996C46.2878 94.9974 46.365 94.9987 46.4421 95V94.9919C54.3496 94.9536 62.0244 94.0685 68.3931 92.4603C74.7617 90.8521 79.5057 88.6013 81.9615 86.0227L81.9651 86.0223L81.9659 86.0437L89.982 78.4897L81.6957 78.4796L81.6961 78.493H46.4541H45.9668H10.7249L10.7253 78.4796Z" fill="#3B3B3B"/>
<path d="M84.0241 82.5417C84.0684 82.3561 84.1011 82.1702 84.1222 81.9841C84.1222 81.3645 83.9933 80.7457 83.7363 80.1324C83.4791 79.5191 83.0946 78.9129 82.5856 78.3184C82.0768 77.7239 81.4449 77.1427 80.6947 76.5791C79.9442 76.0156 79.0774 75.4713 78.1008 74.9502C77.1243 74.4289 76.0406 73.9322 74.8578 73.4638C73.675 72.9956 72.3962 72.557 71.0311 72.1513C69.6661 71.7455 68.2183 71.3738 66.6988 71.0388C65.1793 70.7039 63.5919 70.4067 61.9489 70.1493C60.3059 69.8919 58.6114 69.675 56.8783 69.5003C55.1453 69.3259 53.3781 69.1941 51.5903 69.1059C49.8025 69.0177 47.9985 68.9734 46.1923 68.9734C44.386 68.9734 42.582 69.0177 40.7942 69.1059C39.0064 69.1941 37.2392 69.3259 35.5062 69.5003C33.7731 69.6749 32.0786 69.8916 30.4356 70.1489C28.7925 70.4064 27.2052 70.7038 25.6857 71.0388C24.1662 71.3738 22.7184 71.7455 21.3534 72.1513C19.9882 72.557 18.7092 72.9956 17.5263 73.4638C16.3436 73.932 15.2598 74.4286 14.2834 74.9497C13.3068 75.471 12.4401 76.0155 11.6898 76.5791C10.9394 77.1427 10.3074 77.7239 9.79849 78.3184C9.28951 78.9129 8.90498 79.5191 8.64785 80.1324C8.39084 80.7457 8.26186 81.3645 8.2619 81.9841C8.28296 82.1702 8.31566 82.3561 8.35999 82.5417C8.59357 82.658 8.83168 82.7732 9.07424 82.8872C9.66655 83.1647 10.285 83.4355 10.9287 83.6991C11.4453 83.908 11.9775 84.1123 12.525 84.3117C13.2111 84.563 13.9209 84.8065 14.6533 85.042C15.2336 85.2293 15.8279 85.4115 16.4357 85.5883C17.2092 85.8105 18.0036 86.024 18.8179 86.2284C19.451 86.391 20.0962 86.548 20.7528 86.6992C21.6037 86.8891 22.4725 87.0693 23.358 87.2395C24.0347 87.3756 24.7214 87.5058 25.4174 87.6299C26.3497 87.7869 27.2971 87.9332 28.258 88.0683C28.949 88.1735 29.6475 88.2728 30.3527 88.3661C31.377 88.4894 32.4137 88.6002 33.4607 88.6983C34.1411 88.7715 34.8263 88.8393 35.5158 88.9016C36.6792 88.9907 37.8522 89.0643 39.0322 89.1222C39.6257 89.161 40.2215 89.1958 40.819 89.2265C42.6022 89.2995 44.3964 89.3367 46.1923 89.338C47.988 89.3367 49.782 89.2995 51.5651 89.2265C52.1629 89.1958 52.7589 89.161 53.3527 89.1222C54.5323 89.0643 55.7049 88.9907 56.8679 88.9016C57.5576 88.8393 58.2429 88.7715 58.9234 88.6983C59.9704 88.6002 61.0071 88.4894 62.0314 88.3661C62.7366 88.2728 63.4351 88.1735 64.1261 88.0683C65.0871 87.9332 66.0345 87.7869 66.9667 87.6299C67.6631 87.5056 68.3502 87.3753 69.0273 87.2391C69.9117 87.0691 70.7795 86.8892 71.6293 86.6996C72.2877 86.548 72.9346 86.3906 73.5694 86.2276C74.3827 86.0235 75.1762 85.8103 75.9488 85.5883C76.5559 85.4116 77.1496 85.2296 77.7292 85.0424C78.4622 84.8068 79.1725 84.5631 79.8591 84.3117C80.4071 84.112 80.9399 83.9075 81.457 83.6983C82.0998 83.435 82.7175 83.1647 83.3091 82.8876C83.5519 82.7734 83.7903 82.6581 84.0241 82.5417Z" fill="#4F4F4F"/>
<path d="M46.1922 57.6487C33.9413 57.6486 22.1921 59.318 13.5294 62.2894C4.86669 65.2609 1.34379e-05 69.2911 0 73.4933C0.025548 76.7316 2.94316 79.8895 8.35997 82.5417C8.31564 82.3561 8.28294 82.1702 8.26188 81.9841C8.26184 81.3645 8.39082 80.7457 8.64783 80.1324C8.90496 79.5191 9.28949 78.9129 9.79847 78.3184C10.3074 77.7239 10.9394 77.1427 11.6898 76.5791C12.4401 76.0155 13.3068 75.471 14.2833 74.9497C15.2598 74.4286 16.3435 73.932 17.5263 73.4638C18.7092 72.9956 19.9882 72.557 21.3533 72.1513C22.7184 71.7455 24.1662 71.3738 25.6857 71.0388C27.2052 70.7038 28.7925 70.4064 30.4356 70.1489C32.0786 69.8916 33.7731 69.6749 35.5062 69.5003C37.2392 69.3259 39.0064 69.194 40.7941 69.1059C42.582 69.0177 44.386 68.9734 46.1922 68.9734C47.9985 68.9734 49.8025 69.0177 51.5903 69.1059C53.3781 69.194 55.1453 69.3259 56.8783 69.5003C58.6114 69.675 60.3059 69.8919 61.9489 70.1493C63.5919 70.4067 65.1793 70.7039 66.6988 71.0388C68.2183 71.3738 69.6661 71.7455 71.0311 72.1513C72.3962 72.557 73.675 72.9956 74.8578 73.4638C76.0406 73.9322 77.1243 74.4289 78.1007 74.9501C79.0773 75.4713 79.9442 76.0156 80.6947 76.5791C81.4449 77.1427 82.0768 77.7239 82.5856 78.3184C83.0946 78.9129 83.4791 79.5191 83.7362 80.1324C83.9933 80.7457 84.1222 81.3645 84.1222 81.9841C84.1011 82.1702 84.0684 82.3561 84.0241 82.5417C89.4409 79.8895 92.3585 76.7316 92.3841 73.4933C92.3841 69.2911 87.5174 65.2609 78.8548 62.2895C70.1922 59.318 58.4431 57.6487 46.1922 57.6487Z" fill="#626262"/>
<path d="M46.1923 57.6486C37.5539 57.6556 29.0944 58.4934 21.7744 60.0668C14.4544 61.6402 8.56723 63.8861 4.78156 66.5495L10.4551 71.8959L10.4559 71.8744L10.4595 71.8749C12.9153 74.4534 17.6593 76.7042 24.0279 78.3124C30.3966 79.9206 38.0714 80.8057 45.9789 80.8441V80.8521C46.0562 80.8509 46.1334 80.8495 46.2107 80.8481C46.2878 80.8495 46.365 80.8509 46.4421 80.8521V80.8441C54.3496 80.8057 62.0244 79.9206 68.3931 78.3124C74.7617 76.7042 79.5057 74.4534 81.9615 71.8749L81.9651 71.8744L81.9659 71.8959L87.6238 66.5641C83.8426 63.8968 77.9548 61.6472 70.6303 60.0711C63.3058 58.495 54.8387 57.6556 46.1923 57.6486Z" fill="#434343"/>
<path d="M84.9677 49.7999L86.5177 57.4088L124.603 50.8045L124.6 50.7914C124.666 50.7861 124.731 50.7793 124.796 50.771C125.871 50.5846 126.82 50.005 127.435 49.1598C128.049 48.3146 128.279 47.2729 128.074 46.2639C127.972 45.7643 127.766 45.2877 127.469 44.8615C127.171 44.4352 126.787 44.0675 126.339 43.7795C125.89 43.4915 125.386 43.2887 124.856 43.1828C124.325 43.0768 123.778 43.0698 123.246 43.1621C123.182 43.1762 123.119 43.1917 123.056 43.2086L123.053 43.1955L84.9677 49.7999Z" fill="#434343"/>
<path d="M10.7253 59.314L2.43903 59.3241L10.4551 66.8781L10.4559 66.8566L10.4595 66.8571C12.9153 69.4356 17.6592 71.6864 24.0279 73.2946C30.3966 74.9028 38.0714 75.7879 45.9789 75.8262V75.8343C46.0562 75.8331 46.1334 75.8317 46.2107 75.8303C46.2878 75.8317 46.365 75.8331 46.4421 75.8343V75.8262C54.3496 75.7879 62.0244 74.9028 68.3931 73.2946C74.7617 71.6864 79.5057 69.4356 81.9615 66.8571L81.9651 66.8566L81.9659 66.8781L89.982 59.3241L81.6957 59.314L81.6961 59.3273H46.4541H45.9668H10.7249L10.7253 59.314Z" fill="#3B3B3B"/>
<path d="M84.0241 63.3761C84.0684 63.1904 84.1011 63.0045 84.1222 62.8184C84.1222 62.1988 83.9933 61.58 83.7363 60.9668C83.4791 60.3535 83.0946 59.7472 82.5856 59.1527C82.0768 58.5583 81.4449 57.977 80.6947 57.4134C79.9442 56.85 79.0774 56.3056 78.1008 55.7845C77.1243 55.2632 76.0406 54.7665 74.8578 54.2982C73.675 53.83 72.3962 53.3913 71.0311 52.9856C69.6661 52.5799 68.2183 52.2081 66.6988 51.8731C65.1793 51.5382 63.5919 51.241 61.9489 50.9837C60.3059 50.7262 58.6114 50.5093 56.8783 50.3347C55.1453 50.1602 53.3781 50.0284 51.5903 49.9403C49.8025 49.852 47.9985 49.8077 46.1923 49.8077C44.386 49.8077 42.582 49.852 40.7942 49.9403C39.0064 50.0284 37.2392 50.1602 35.5062 50.3347C33.7731 50.5092 32.0786 50.7259 30.4356 50.9833C28.7925 51.2407 27.2052 51.5381 25.6857 51.8731C24.1662 52.2081 22.7184 52.5799 21.3534 52.9856C19.9882 53.3913 18.7092 53.8299 17.5263 54.2982C16.3436 54.7663 15.2598 55.2629 14.2834 55.7841C13.3068 56.3053 12.4401 56.8498 11.6898 57.4134C10.9394 57.977 10.3074 58.5582 9.79849 59.1527C9.28951 59.7472 8.90498 60.3535 8.64785 60.9668C8.39084 61.58 8.26186 62.1988 8.2619 62.8184C8.28296 63.0045 8.31566 63.1904 8.35999 63.3761C8.59357 63.4923 8.83168 63.6075 9.07424 63.7216C9.66655 63.999 10.285 64.2698 10.9287 64.5334C11.4453 64.7423 11.9775 64.9466 12.525 65.146C13.2111 65.3973 13.9209 65.6409 14.6533 65.8763C15.2336 66.0636 15.8279 66.2458 16.4357 66.4226C17.2092 66.6449 18.0036 66.8583 18.8179 67.0627C19.451 67.2253 20.0962 67.3823 20.7528 67.5335C21.6037 67.7234 22.4725 67.9036 23.358 68.0738C24.0347 68.2099 24.7214 68.3401 25.4174 68.4642C26.3497 68.6212 27.2971 68.7675 28.258 68.9026C28.949 69.0078 29.6475 69.1071 30.3527 69.2005C31.377 69.3237 32.4137 69.4345 33.4607 69.5326C34.1411 69.6058 34.8263 69.6736 35.5158 69.7359C36.6792 69.825 37.8522 69.8986 39.0322 69.9566C39.6257 69.9953 40.2215 70.0301 40.819 70.0608C42.6022 70.1338 44.3964 70.171 46.1923 70.1723C47.988 70.171 49.782 70.1338 51.5651 70.0608C52.1629 70.0301 52.7589 69.9953 53.3527 69.9566C54.5323 69.8986 55.7049 69.825 56.8679 69.7359C57.5576 69.6736 58.2429 69.6058 58.9234 69.5326C59.9704 69.4345 61.0071 69.3237 62.0314 69.2005C62.7366 69.1071 63.4351 69.0078 64.1261 68.9026C65.0871 68.7675 66.0345 68.6212 66.9667 68.4642C67.6631 68.34 68.3502 68.2097 69.0273 68.0734C69.9117 67.9034 70.7795 67.7235 71.6293 67.5339C72.2877 67.3823 72.9346 67.2249 73.5694 67.0619C74.3827 66.8578 75.1762 66.6446 75.9488 66.4226C76.5559 66.2459 77.1496 66.0639 77.7292 65.8767C78.4622 65.6411 79.1725 65.3975 79.8591 65.146C80.4071 64.9463 80.9399 64.7418 81.457 64.5326C82.0998 64.2694 82.7175 63.999 83.3091 63.722C83.5519 63.6078 83.7903 63.4924 84.0241 63.3761Z" fill="#4F4F4F"/>
<path d="M46.1922 38.483C33.9413 38.483 22.1921 40.1523 13.5294 43.1238C4.86669 46.0952 1.34379e-05 50.1254 0 54.3277C0.025548 57.566 2.94316 60.7238 8.35997 63.3761C8.31564 63.1904 8.28294 63.0045 8.26188 62.8184C8.26184 62.1988 8.39082 61.58 8.64783 60.9668C8.90496 60.3534 9.28949 59.7472 9.79847 59.1527C10.3074 58.5582 10.9394 57.977 11.6898 57.4134C12.4401 56.8498 13.3068 56.3053 14.2833 55.7841C15.2598 55.2629 16.3435 54.7663 17.5263 54.2982C18.7092 53.8299 19.9882 53.3913 21.3533 52.9856C22.7184 52.5799 24.1662 52.2081 25.6857 51.8731C27.2052 51.5381 28.7925 51.2407 30.4356 50.9833C32.0786 50.7259 33.7731 50.5092 35.5062 50.3347C37.2392 50.1602 39.0064 50.0284 40.7941 49.9403C42.582 49.852 44.386 49.8077 46.1922 49.8077C47.9985 49.8077 49.8025 49.852 51.5903 49.9403C53.3781 50.0284 55.1453 50.1602 56.8783 50.3347C58.6114 50.5093 60.3059 50.7262 61.9489 50.9837C63.5919 51.241 65.1793 51.5382 66.6988 51.8731C68.2183 52.2081 69.6661 52.5799 71.0311 52.9856C72.3962 53.3913 73.675 53.83 74.8578 54.2982C76.0406 54.7665 77.1243 55.2632 78.1007 55.7845C79.0773 56.3056 79.9442 56.85 80.6947 57.4134C81.4449 57.977 82.0768 58.5582 82.5856 59.1527C83.0946 59.7472 83.4791 60.3534 83.7362 60.9668C83.9933 61.58 84.1222 62.1988 84.1222 62.8184C84.1011 63.0045 84.0684 63.1904 84.0241 63.3761C89.4409 60.7238 92.3585 57.566 92.3841 54.3277C92.3841 50.1254 87.5174 46.0953 78.8548 43.1238C70.1922 40.1524 58.4431 38.483 46.1922 38.483Z" fill="#626262"/>
<path d="M46.1923 38.4064C37.5539 38.4134 29.0944 39.2512 21.7744 40.8246C14.4544 42.3979 8.56723 44.6439 4.78156 47.3073L10.4551 52.6536L10.4559 52.6322L10.4595 52.6326C12.9153 55.2112 17.6593 57.462 24.0279 59.0702C30.3966 60.6784 38.0714 61.5635 45.9789 61.6018V61.6099C46.0562 61.6087 46.1334 61.6073 46.2107 61.6059C46.2878 61.6073 46.365 61.6087 46.4421 61.6099V61.6018C54.3496 61.5635 62.0244 60.6784 68.3931 59.0702C74.7617 57.462 79.5057 55.2112 81.9615 52.6326L81.9651 52.6322L81.9659 52.6536L87.6238 47.3218C83.8426 44.6546 77.9548 42.405 70.6303 40.8289C63.3058 39.2527 54.8387 38.4134 46.1923 38.4064Z" fill="#434343"/>
<path d="M84.9677 30.5577L86.5177 38.1666L124.603 31.5623L124.6 31.5492C124.666 31.5439 124.731 31.5371 124.796 31.5288C125.871 31.3424 126.82 30.7628 127.435 29.9176C128.049 29.0723 128.279 28.0307 128.074 27.0217C127.972 26.5221 127.766 26.0455 127.469 25.6193C127.171 25.193 126.787 24.8253 126.339 24.5373C125.89 24.2493 125.386 24.0465 124.856 23.9406C124.325 23.8346 123.778 23.8276 123.246 23.9199C123.182 23.934 123.119 23.9495 123.056 23.9664L123.053 23.9533L84.9677 30.5577Z" fill="#434343"/>
<path d="M10.7253 40.0717L2.43903 40.0818L10.4551 47.6358L10.4559 47.6144L10.4595 47.6148C12.9153 50.1934 17.6592 52.4442 24.0279 54.0523C30.3966 55.6605 38.0714 56.5457 45.9789 56.584V56.5921C46.0562 56.5908 46.1334 56.5895 46.2107 56.588C46.2878 56.5895 46.365 56.5908 46.4421 56.5921V56.584C54.3496 56.5457 62.0244 55.6605 68.3931 54.0523C74.7617 52.4442 79.5057 50.1934 81.9615 47.6148L81.9651 47.6144L81.9659 47.6358L89.982 40.0818L81.6957 40.0717L81.6961 40.0851H46.4541H45.9668H10.7249L10.7253 40.0717Z" fill="#3B3B3B"/>
<path d="M84.0241 44.1338C84.0684 43.9482 84.1011 43.7623 84.1222 43.5762C84.1222 42.9566 83.9933 42.3378 83.7363 41.7245C83.4791 41.1112 83.0946 40.505 82.5856 39.9105C82.0768 39.316 81.4449 38.7348 80.6947 38.1712C79.9442 37.6077 79.0774 37.0634 78.1008 36.5423C77.1243 36.021 76.0406 35.5243 74.8578 35.0559C73.675 34.5877 72.3962 34.1491 71.0311 33.7434C69.6661 33.3377 68.2183 32.9659 66.6988 32.6309C65.1793 32.296 63.5919 31.9988 61.9489 31.7414C60.3059 31.484 58.6114 31.2671 56.8783 31.0924C55.1453 30.918 53.3781 30.7862 51.5903 30.698C49.8025 30.6098 47.9985 30.5655 46.1923 30.5655C44.386 30.5655 42.582 30.6098 40.7942 30.698C39.0064 30.7862 37.2392 30.918 35.5062 31.0924C33.7731 31.267 32.0786 31.4837 30.4356 31.741C28.7925 31.9985 27.2052 32.2959 25.6857 32.6309C24.1662 32.9659 22.7184 33.3377 21.3534 33.7434C19.9882 34.1491 18.7092 34.5877 17.5263 35.0559C16.3436 35.5241 15.2598 36.0207 14.2834 36.5418C13.3068 37.0631 12.4401 37.6076 11.6898 38.1712C10.9394 38.7348 10.3074 39.316 9.79849 39.9105C9.28951 40.505 8.90498 41.1112 8.64785 41.7245C8.39084 42.3378 8.26186 42.9566 8.2619 43.5762C8.28296 43.7623 8.31566 43.9482 8.35999 44.1338C8.59357 44.2501 8.83168 44.3653 9.07424 44.4793C9.66655 44.7568 10.285 45.0276 10.9287 45.2912C11.4453 45.5001 11.9775 45.7044 12.525 45.9038C13.2111 46.1551 13.9209 46.3986 14.6533 46.6341C15.2336 46.8214 15.8279 47.0036 16.4357 47.1804C17.2092 47.4026 18.0036 47.6161 18.8179 47.8205C19.451 47.9831 20.0962 48.1401 20.7528 48.2913C21.6037 48.4812 22.4725 48.6614 23.358 48.8316C24.0347 48.9677 24.7214 49.0979 25.4174 49.222C26.3497 49.379 27.2971 49.5253 28.258 49.6604C28.949 49.7656 29.6475 49.8649 30.3527 49.9582C31.377 50.0815 32.4137 50.1923 33.4607 50.2904C34.1411 50.3636 34.8263 50.4314 35.5158 50.4937C36.6792 50.5828 37.8522 50.6564 39.0322 50.7143C39.6257 50.7531 40.2215 50.7879 40.819 50.8186C42.6022 50.8916 44.3964 50.9288 46.1923 50.9301C47.988 50.9288 49.782 50.8916 51.5651 50.8186C52.1629 50.7879 52.7589 50.7531 53.3527 50.7143C54.5323 50.6564 55.7049 50.5828 56.8679 50.4937C57.5576 50.4314 58.2429 50.3636 58.9234 50.2904C59.9704 50.1923 61.0071 50.0815 62.0314 49.9582C62.7366 49.8649 63.4351 49.7656 64.1261 49.6604C65.0871 49.5253 66.0345 49.379 66.9667 49.222C67.6631 49.0977 68.3502 48.9674 69.0273 48.8312C69.9117 48.6612 70.7795 48.4813 71.6293 48.2917C72.2877 48.1401 72.9346 47.9827 73.5694 47.8197C74.3827 47.6156 75.1762 47.4024 75.9488 47.1804C76.5559 47.0037 77.1496 46.8217 77.7292 46.6345C78.4622 46.3989 79.1725 46.1552 79.8591 45.9038C80.4071 45.7041 80.9399 45.4996 81.457 45.2904C82.0998 45.0271 82.7175 44.7568 83.3091 44.4798C83.5519 44.3655 83.7903 44.2502 84.0241 44.1338Z" fill="#4F4F4F"/>
<path d="M46.1922 19.2408C33.9413 19.2407 22.1921 20.9101 13.5294 23.8815C4.86669 26.853 1.34379e-05 30.8832 0 35.0854C0.025548 38.3237 2.94316 41.4816 8.35997 44.1338C8.31564 43.9482 8.28294 43.7623 8.26188 43.5762C8.26184 42.9566 8.39082 42.3378 8.64783 41.7245C8.90496 41.1112 9.28949 40.505 9.79847 39.9105C10.3074 39.316 10.9394 38.7348 11.6898 38.1712C12.4401 37.6076 13.3068 37.0631 14.2833 36.5418C15.2598 36.0207 16.3435 35.5241 17.5263 35.0559C18.7092 34.5877 19.9882 34.1491 21.3533 33.7434C22.7184 33.3376 24.1662 32.9659 25.6857 32.6309C27.2052 32.2959 28.7925 31.9985 30.4356 31.741C32.0786 31.4837 33.7731 31.267 35.5062 31.0924C37.2392 30.918 39.0064 30.7862 40.7941 30.698C42.582 30.6098 44.386 30.5655 46.1922 30.5655C47.9985 30.5655 49.8025 30.6098 51.5903 30.698C53.3781 30.7862 55.1453 30.918 56.8783 31.0924C58.6114 31.2671 60.3059 31.484 61.9489 31.7414C63.5919 31.9988 65.1793 32.296 66.6988 32.6309C68.2183 32.9659 69.6661 33.3376 71.0311 33.7434C72.3962 34.1491 73.675 34.5877 74.8578 35.0559C76.0406 35.5243 77.1243 36.021 78.1007 36.5423C79.0773 37.0634 79.9442 37.6077 80.6947 38.1712C81.4449 38.7348 82.0768 39.316 82.5856 39.9105C83.0946 40.505 83.4791 41.1112 83.7362 41.7245C83.9933 42.3378 84.1222 42.9566 84.1222 43.5762C84.1011 43.7623 84.0684 43.9482 84.0241 44.1338C89.4409 41.4816 92.3585 38.3237 92.3841 35.0854C92.3841 30.8832 87.5174 26.853 78.8548 23.8816C70.1922 20.9101 58.4431 19.2408 46.1922 19.2408Z" fill="#626262"/>
<path d="M46.1923 19.1656C37.5539 19.1727 29.0944 20.0104 21.7744 21.5838C14.4544 23.1572 8.56723 25.4031 4.78156 28.0665L10.4551 33.4129L10.4559 33.3915L10.4595 33.3919C12.9153 35.9705 17.6593 38.2212 24.0279 39.8294C30.3966 41.4376 38.0714 42.3228 45.9789 42.3611V42.3692C46.0562 42.3679 46.1334 42.3666 46.2107 42.3651C46.2878 42.3666 46.365 42.3679 46.4421 42.3692V42.3611C54.3496 42.3228 62.0244 41.4376 68.3931 39.8294C74.7617 38.2212 79.5057 35.9705 81.9615 33.3919L81.9651 33.3915L81.9659 33.4129L87.6238 28.0811C83.8426 25.4139 77.9548 23.1642 70.6303 21.5881C63.3058 20.012 54.8387 19.1727 46.1923 19.1656Z" fill="#434343"/>
<path d="M84.9677 11.3169L86.5177 18.9259L124.603 12.3215L124.6 12.3084C124.666 12.3031 124.731 12.2963 124.796 12.2881C125.871 12.1016 126.82 11.5221 127.435 10.6768C128.049 9.83159 128.279 8.78991 128.074 7.78094C127.972 7.28132 127.766 6.80477 127.469 6.3785C127.171 5.95222 126.787 5.58457 126.339 5.29654C125.89 5.00851 125.386 4.80574 124.856 4.69981C124.325 4.59387 123.778 4.58685 123.246 4.67914C123.182 4.69322 123.119 4.70872 123.056 4.72564L123.053 4.71256L84.9677 11.3169Z" fill="#434343"/>
<path d="M10.7253 20.831L2.43903 20.8411L10.4551 28.3951L10.4559 28.3737L10.4595 28.3741C12.9153 30.9527 17.6592 33.2034 24.0279 34.8116C30.3966 36.4198 38.0714 37.305 45.9789 37.3433V37.3514C46.0562 37.3501 46.1334 37.3488 46.2107 37.3473C46.2878 37.3488 46.365 37.3501 46.4421 37.3514V37.3433C54.3496 37.305 62.0244 36.4198 68.3931 34.8116C74.7617 33.2034 79.5057 30.9527 81.9615 28.3741L81.9651 28.3737L81.9659 28.3951L89.982 20.8411L81.6957 20.831L81.6961 20.8443H46.4541H45.9668H10.7249L10.7253 20.831Z" fill="#3B3B3B"/>
<path d="M84.0241 24.8931C84.0684 24.7075 84.1011 24.5215 84.1222 24.3354C84.1222 23.7158 83.9933 23.0971 83.7363 22.4838C83.4791 21.8705 83.0946 21.2643 82.5856 20.6697C82.0768 20.0753 81.4449 19.494 80.6947 18.9305C79.9442 18.367 79.0774 17.8226 78.1008 17.3015C77.1243 16.7802 76.0406 16.2835 74.8578 15.8152C73.675 15.347 72.3962 14.9084 71.0311 14.5026C69.6661 14.0969 68.2183 13.7251 66.6988 13.3901C65.1793 13.0552 63.5919 12.758 61.9489 12.5007C60.3059 12.2432 58.6114 12.0263 56.8783 11.8517C55.1453 11.6772 53.3781 11.5454 51.5903 11.4573C49.8025 11.3691 47.9985 11.3248 46.1923 11.3247C44.386 11.3248 42.582 11.3691 40.7942 11.4573C39.0064 11.5454 37.2392 11.6772 35.5062 11.8517C33.7731 12.0262 32.0786 12.243 30.4356 12.5003C28.7925 12.7577 27.2052 13.0551 25.6857 13.3901C24.1662 13.7251 22.7184 14.0969 21.3534 14.5026C19.9882 14.9083 18.7092 15.347 17.5263 15.8152C16.3436 16.2834 15.2598 16.7799 14.2834 17.3011C13.3068 17.8223 12.4401 18.3668 11.6898 18.9305C10.9394 19.494 10.3074 20.0753 9.79849 20.6697C9.28951 21.2643 8.90498 21.8705 8.64785 22.4838C8.39084 23.0971 8.26186 23.7158 8.2619 24.3354C8.28296 24.5215 8.31566 24.7075 8.35999 24.8931C8.59357 25.0093 8.83168 25.1245 9.07424 25.2386C9.66655 25.516 10.285 25.7868 10.9287 26.0504C11.4453 26.2594 11.9775 26.4636 12.525 26.6631C13.2111 26.9144 13.9209 27.1579 14.6533 27.3933C15.2336 27.5807 15.8279 27.7628 16.4357 27.9397C17.2092 28.1619 18.0036 28.3754 18.8179 28.5798C19.451 28.7423 20.0962 28.8993 20.7528 29.0505C21.6037 29.2404 22.4725 29.4206 23.358 29.5908C24.0347 29.7269 24.7214 29.8571 25.4174 29.9812C26.3497 30.1383 27.2971 30.2845 28.258 30.4197C28.949 30.5248 29.6475 30.6241 30.3527 30.7175C31.377 30.8407 32.4137 30.9515 33.4607 31.0497C34.1411 31.1229 34.8263 31.1906 35.5158 31.2529C36.6792 31.342 37.8522 31.4156 39.0322 31.4736C39.6257 31.5123 40.2215 31.5471 40.819 31.5778C42.6022 31.6508 44.3964 31.6881 46.1923 31.6894C47.988 31.6881 49.782 31.6508 51.5651 31.5778C52.1629 31.5471 52.7589 31.5123 53.3527 31.4736C54.5323 31.4156 55.7049 31.342 56.8679 31.2529C57.5576 31.1906 58.2429 31.1229 58.9234 31.0497C59.9704 30.9515 61.0071 30.8407 62.0314 30.7175C62.7366 30.6241 63.4351 30.5248 64.1261 30.4197C65.0871 30.2845 66.0345 30.1383 66.9667 29.9812C67.6631 29.857 68.3502 29.7267 69.0273 29.5904C69.9117 29.4205 70.7795 29.2405 71.6293 29.051C72.2877 28.8994 72.9346 28.742 73.5694 28.579C74.3827 28.3748 75.1762 28.1616 75.9488 27.9397C76.5559 27.763 77.1496 27.5809 77.7292 27.3937C78.4622 27.1582 79.1725 26.9145 79.8591 26.6631C80.4071 26.4634 80.9399 26.2588 81.457 26.0496C82.0998 25.7864 82.7175 25.516 83.3091 25.239C83.5519 25.1248 83.7903 25.0095 84.0241 24.8931Z" fill="#4F4F4F"/>
<path d="M46.1922 0C33.9413 -4.47559e-06 22.1921 1.66934 13.5294 4.64079C4.86669 7.61225 1.34379e-05 11.6424 0 15.8447C0.025548 19.083 2.94316 22.2409 8.35997 24.8931C8.31564 24.7075 8.28294 24.5215 8.26188 24.3354C8.26184 23.7158 8.39082 23.0971 8.64783 22.4838C8.90496 21.8705 9.28949 21.2643 9.79847 20.6697C10.3074 20.0753 10.9394 19.494 11.6898 18.9305C12.4401 18.3668 13.3068 17.8223 14.2833 17.3011C15.2598 16.7799 16.3435 16.2834 17.5263 15.8152C18.7092 15.347 19.9882 14.9083 21.3533 14.5026C22.7184 14.0969 24.1662 13.7251 25.6857 13.3901C27.2052 13.0551 28.7925 12.7577 30.4356 12.5003C32.0786 12.243 33.7731 12.0262 35.5062 11.8517C37.2392 11.6772 39.0064 11.5454 40.7941 11.4573C42.582 11.3691 44.386 11.3248 46.1922 11.3247C47.9985 11.3248 49.8025 11.3691 51.5903 11.4573C53.3781 11.5454 55.1453 11.6772 56.8783 11.8517C58.6114 12.0263 60.3059 12.2432 61.9489 12.5007C63.5919 12.758 65.1793 13.0552 66.6988 13.3901C68.2183 13.7251 69.6661 14.0969 71.0311 14.5026C72.3962 14.9083 73.675 15.347 74.8578 15.8152C76.0406 16.2835 77.1243 16.7802 78.1007 17.3015C79.0773 17.8226 79.9442 18.367 80.6947 18.9305C81.4449 19.494 82.0768 20.0753 82.5856 20.6697C83.0946 21.2643 83.4791 21.8705 83.7362 22.4838C83.9933 23.0971 84.1222 23.7158 84.1222 24.3354C84.1011 24.5215 84.0684 24.7075 84.0241 24.8931C89.4409 22.2409 92.3585 19.083 92.3841 15.8447C92.3841 11.6424 87.5174 7.6123 78.8548 4.64084C70.1922 1.66939 58.4431 3.18884e-05 46.1922 0Z" fill="#626262"/>
</g>
</g>
<defs>
<clipPath id="clip0_101_69">
<rect width="128" height="95" fill="white"/>
</clipPath>
<clipPath id="clip1_101_69">
<rect width="128" height="95" fill="white"/>
</clipPath>
</defs>
</svg>
